# Blender 3.3.21
# www.blender.org
mtllib foilage.mtl
o foliage
v 0.250000 -0.500000 -2.433013
v -0.250000 -0.500000 -1.566987
v 0.250000 0.500000 -2.433013
v -0.250000 0.500000 -1.566987
v -0.500000 -0.500000 -2.000000
v 0.500000 -0.500000 -2.000000
v -0.500000 0.500000 -2.000000
v 0.500000 0.500000 -2.000000
v 0.250000 -0.500000 -1.566987
v -0.250000 -0.500000 -2.433013
v 0.250000 0.500000 -1.566987
v -0.250000 0.500000 -2.433013
vn -0.8660 -0.0000 -0.5000
vn -0.0000 -0.0000 1.0000
vn 0.8660 -0.0000 -0.5000
vt 0.000000 0.000000
vt 1.000000 0.000000
vt 0.000000 1.000000
vt 1.000000 1.000000
vt 0.000000 0.000000
vt 1.000000 0.000000
vt 0.000000 1.000000
vt 1.000000 1.000000
vt 0.000000 0.000000
vt 1.000000 0.000000
vt 0.000000 1.000000
vt 1.000000 1.000000
s 0
usemtl foliage
f 1/1/1 2/2/1 4/4/1 3/3/1
f 5/5/2 6/6/2 8/8/2 7/7/2
f 9/9/3 10/10/3 12/12/3 11/11/3
