{"asset":{"version":"2.0","generator":"Blockbench 4.10.4 glTF exporter"},"scenes":[{"nodes":[2],"name":"blockbench_export"}],"scene":0,"nodes":[{"translation":[0,-0.07500000000000001,0.006250000000000001],"name":"cuboid","mesh":0},{"name":"bone","children":[0]},{"children":[1]}],"bufferViews":[{"buffer":0,"byteOffset":0,"byteLength":5088,"target":34962,"byteStride":12},{"buffer":0,"byteOffset":5088,"byteLength":5088,"target":34962,"byteStride":12},{"buffer":0,"byteOffset":10176,"byteLength":3392,"target":34962,"byteStride":8},{"buffer":0,"byteOffset":13568,"byteLength":1272,"target":34963}],"buffers":[{"byteLength":14840,"uri":"data:application/octet-stream;base64,"}],"accessors":[{"bufferView":0,"componentType":5126,"count":424,"max":[0.3375000059604645,1.0593750476837158,0.5218750238418579],"min":[-0.3375000059604645,-0.5843750238418579,-0.5218750238418579],"type":"VEC3"},{"bufferView":1,"componentType":5126,"count":424,"max":[1,1,1],"min":[-1,-1,-1],"type":"VEC3"},{"bufferView":2,"componentType":5126,"count":424,"max":[0.4047396183013916,0.5229787230491638],"min":[0.09929165989160538,0.0631704330444336],"type":"VEC2"},{"bufferView":3,"componentType":5123,"count":636,"max":[423],"min":[0],"type":"SCALAR"}],"materials":[{"pbrMetallicRoughness":{"metallicFactor":0,"roughnessFactor":1,"baseColorTexture":{"index":0}},"alphaMode":"MASK","alphaCutoff":0.05,"doubleSided":true}],"textures":[{"sampler":0,"source":0,"name":"stiched_texture"}],"samplers":[{"magFilter":9728,"minFilter":9728,"wrapS":33071,"wrapT":33071}],"images":[{"mimeType":"image/png","uri":"data:image/png;base64,"}],"meshes":[{"primitives":[{"mode":4,"attributes":{"POSITION":0,"NORMAL":1,"TEXCOORD_0":2},"indices":3,"material":0}]}]}